HIERARCHY
ROOT Hips
{
	OFFSET 0.000000 83.214638 0.000000
	CHANNELS 6 Xposition Yposition Zposition Xrotation Yrotation Zrotation
	JOINT Pelvis
	{
		OFFSET 0.000000 0.000000 0.000000
		CHANNELS 3 Xrotation Yrotation Zrotation
		JOINT LeftUpLeg
		{
			OFFSET 8.479700 -4.795502 -0.379100
			CHANNELS 3 Xrotation Yrotation Zrotation
			JOINT LeftLeg
			{
				OFFSET 0.024144 -32.555107 0.112900
				CHANNELS 3 Xrotation Yrotation Zrotation
				JOINT LeftFoot
				{
					OFFSET -0.024144 -32.638630 -3.012600
					CHANNELS 3 Xrotation Yrotation Zrotation
					JOINT LeftToeBase
					{
						OFFSET 0.970200 -13.225400 11.864200
						CHANNELS 3 Xrotation Yrotation Zrotation
						End Site
						{
							OFFSET 0.000000 12.319262 0.000000
						}
					}
					JOINT LFootTongue
					{
						OFFSET 1.142400 -1.059800 6.665200
						CHANNELS 3 Xrotation Yrotation Zrotation
						End Site
						{
							OFFSET 0.000000 12.319262 0.000000
						}
					}
				}
				JOINT LeftPantLeg
				{
					OFFSET 0.918482 -16.533964 -2.284700
					CHANNELS 3 Xrotation Yrotation Zrotation
					End Site
					{
						OFFSET 0.350399 24.744368 0.000000
					}
				}
			}
		}
		JOINT RightUpLeg
		{
			OFFSET -8.479700 -4.795502 -0.379100
			CHANNELS 3 Xrotation Yrotation Zrotation
			JOINT RightLeg
			{
				OFFSET -0.023144 -32.555092 0.112900
				CHANNELS 3 Xrotation Yrotation Zrotation
				JOINT RightFoot
				{
					OFFSET 0.023144 -32.638641 -3.012700
					CHANNELS 3 Xrotation Yrotation Zrotation
					JOINT RightToeBase
					{
						OFFSET -0.970200 -13.225400 11.864200
						CHANNELS 3 Xrotation Yrotation Zrotation
						End Site
						{
							OFFSET 0.000000 12.319244 0.000000
						}
					}
					JOINT RFootTongue
					{
						OFFSET -1.142200 -1.059800 6.665200
						CHANNELS 3 Xrotation Yrotation Zrotation
						End Site
						{
							OFFSET 0.000000 12.319243 0.000000
						}
					}
				}
				JOINT RightPantLeg
				{
					OFFSET -0.919482 -16.533978 -2.284800
					CHANNELS 3 Xrotation Yrotation Zrotation
					End Site
					{
						OFFSET -0.350400 24.744419 0.000000
					}
				}
			}
		}
	}
	JOINT Spine
	{
		OFFSET 0.000000 7.722000 1.166200
		CHANNELS 3 Xrotation Yrotation Zrotation
		JOINT Spine1
		{
			OFFSET 0.000000 12.024101 0.248800
			CHANNELS 3 Xrotation Yrotation Zrotation
			JOINT Spine2
			{
				OFFSET 0.000000 11.502998 -0.491200
				CHANNELS 3 Xrotation Yrotation Zrotation
				JOINT Neck
				{
					OFFSET 0.000000 18.430702 -3.123100
					CHANNELS 3 Xrotation Yrotation Zrotation
					JOINT Head
					{
						OFFSET 0.000000 9.051102 1.034000
						CHANNELS 3 Xrotation Yrotation Zrotation
						JOINT HairB
						{
							OFFSET 0.208400 24.786102 24.822300
							CHANNELS 3 Xrotation Yrotation Zrotation
							End Site
							{
								OFFSET 0.000000 32.263779 0.000000
							}
						}
						JOINT HairA
						{
							OFFSET -7.081100 24.428299 23.196600
							CHANNELS 3 Xrotation Yrotation Zrotation
							End Site
							{
								OFFSET 0.000000 32.263779 0.000000
							}
						}
						JOINT Hat
						{
							OFFSET 16.728800 15.048294 -15.439601
							CHANNELS 3 Xrotation Yrotation Zrotation
							End Site
							{
								OFFSET 0.000000 32.263779 0.000000
							}
						}
					}
				}
				JOINT LeftShoulder
				{
					OFFSET 6.197800 13.665199 -4.064700
					CHANNELS 3 Xrotation Yrotation Zrotation
					JOINT LeftArm
					{
						OFFSET 7.778100 -0.187103 -1.709300
						CHANNELS 3 Xrotation Yrotation Zrotation
						JOINT LeftForeArm
						{
							OFFSET 22.049376 0.000000 0.000000
							CHANNELS 3 Xrotation Yrotation Zrotation
							JOINT LeftHand
							{
								OFFSET 23.009392 0.000000 0.000000
								CHANNELS 3 Xrotation Yrotation Zrotation
								JOINT LeftHandThumb1
								{
									OFFSET 3.507191 -2.063065 3.133727
									CHANNELS 3 Xrotation Yrotation Zrotation
									JOINT LeftHandThumb2
									{
										OFFSET 3.101337 -1.790558 1.790558
										CHANNELS 3 Xrotation Yrotation Zrotation
										JOINT LeftHandThumb3
										{
											OFFSET 3.058640 -1.765907 1.765906
											CHANNELS 3 Xrotation Yrotation Zrotation
											End Site
											{
												OFFSET -0.415260 3.926476 -0.049563
											}
										}
									}
								}
								JOINT LeftHandIndex1
								{
									OFFSET 11.334419 -0.901459 3.706815
									CHANNELS 3 Xrotation Yrotation Zrotation
									JOINT LeftHandIndex2
									{
										OFFSET 3.283112 0.000000 0.000000
										CHANNELS 3 Xrotation Yrotation Zrotation
										JOINT LeftHandIndex3
										{
											OFFSET 3.323853 0.000000 0.000000
											CHANNELS 3 Xrotation Yrotation Zrotation
											End Site
											{
												OFFSET -1.135597 3.097809 0.402452
											}
										}
									}
								}
								JOINT LeftHandMiddle1
								{
									OFFSET 11.335861 0.000000 0.000000
									CHANNELS 3 Xrotation Yrotation Zrotation
									JOINT LeftHandMiddle2
									{
										OFFSET 3.410492 0.000000 0.000000
										CHANNELS 3 Xrotation Yrotation Zrotation
										JOINT LeftHandMiddle3
										{
											OFFSET 3.312172 0.000000 0.000000
											CHANNELS 3 Xrotation Yrotation Zrotation
											End Site
											{
												OFFSET -1.150200 3.080154 0.400270
											}
										}
									}
								}
								JOINT LeftHandRing1
								{
									OFFSET 11.514786 -0.013176 -3.003090
									CHANNELS 3 Xrotation Yrotation Zrotation
									JOINT LeftHandRing2
									{
										OFFSET 3.053307 0.000000 0.000000
										CHANNELS 3 Xrotation Yrotation Zrotation
										JOINT LeftHandRing3
										{
											OFFSET 3.295807 0.000000 0.000000
											CHANNELS 3 Xrotation Yrotation Zrotation
											End Site
											{
												OFFSET -1.281006 3.013344 0.375733
											}
										}
									}
								}
								JOINT LeftHandPinky1
								{
									OFFSET 10.518692 -0.960396 -5.730441
									CHANNELS 3 Xrotation Yrotation Zrotation
									JOINT LeftHandPinky2
									{
										OFFSET 2.861649 0.000000 0.000000
										CHANNELS 3 Xrotation Yrotation Zrotation
										JOINT LeftHandPinky3
										{
											OFFSET 2.863380 0.000000 0.000000
											CHANNELS 3 Xrotation Yrotation Zrotation
											End Site
											{
												OFFSET -0.843597 2.711159 0.369971
											}
										}
									}
								}
							}
							JOINT LSleeve
							{
								OFFSET 6.676277 -0.344902 -1.011730
								CHANNELS 3 Xrotation Yrotation Zrotation
								End Site
								{
									OFFSET 0.000000 14.885353 0.000000
								}
							}
						}
					}
				}
				JOINT RightShoulder
				{
					OFFSET -6.197800 13.665199 -4.064700
					CHANNELS 3 Xrotation Yrotation Zrotation
					JOINT RightArm
					{
						OFFSET -7.778100 -0.187103 -1.709300
						CHANNELS 3 Xrotation Yrotation Zrotation
						JOINT RightForeArm
						{
							OFFSET -22.049376 0.000000 0.000000
							CHANNELS 3 Xrotation Yrotation Zrotation
							JOINT RightHand
							{
								OFFSET -23.009392 0.000000 0.000000
								CHANNELS 3 Xrotation Yrotation Zrotation
								JOINT RightHandThumb1
								{
									OFFSET -3.507191 -2.063065 3.133727
									CHANNELS 3 Xrotation Yrotation Zrotation
									JOINT RightHandThumb2
									{
										OFFSET -3.101337 -1.790558 1.790558
										CHANNELS 3 Xrotation Yrotation Zrotation
										JOINT RightHandThumb3
										{
											OFFSET -3.058640 -1.765907 1.765906
											CHANNELS 3 Xrotation Yrotation Zrotation
											End Site
											{
												OFFSET 0.415260 3.926476 -0.049563
											}
										}
									}
								}
								JOINT RightHandIndex1
								{
									OFFSET -11.334419 -0.901459 3.706815
									CHANNELS 3 Xrotation Yrotation Zrotation
									JOINT RightHandIndex2
									{
										OFFSET -3.283112 0.000000 0.000000
										CHANNELS 3 Xrotation Yrotation Zrotation
										JOINT RightHandIndex3
										{
											OFFSET -3.323853 0.000000 0.000000
											CHANNELS 3 Xrotation Yrotation Zrotation
											End Site
											{
												OFFSET 1.135597 3.097809 0.402452
											}
										}
									}
								}
								JOINT RightHandMiddle1
								{
									OFFSET -11.335861 0.000000 0.000000
									CHANNELS 3 Xrotation Yrotation Zrotation
									JOINT RightHandMiddle2
									{
										OFFSET -3.410492 0.000000 0.000000
										CHANNELS 3 Xrotation Yrotation Zrotation
										JOINT RightHandMiddle3
										{
											OFFSET -3.312172 0.000000 0.000000
											CHANNELS 3 Xrotation Yrotation Zrotation
											End Site
											{
												OFFSET 1.150200 3.080154 0.400270
											}
										}
									}
								}
								JOINT RightHandRing1
								{
									OFFSET -11.514786 -0.013176 -3.003090
									CHANNELS 3 Xrotation Yrotation Zrotation
									JOINT RightHandRing2
									{
										OFFSET -3.053307 0.000000 0.000000
										CHANNELS 3 Xrotation Yrotation Zrotation
										JOINT RightHandRing3
										{
											OFFSET -3.295807 0.000000 0.000000
											CHANNELS 3 Xrotation Yrotation Zrotation
											End Site
											{
												OFFSET 1.281006 3.013344 0.375733
											}
										}
									}
								}
								JOINT RightHandPinky1
								{
									OFFSET -10.518692 -0.960396 -5.730441
									CHANNELS 3 Xrotation Yrotation Zrotation
									JOINT RightHandPinky2
									{
										OFFSET -2.861649 0.000000 0.000000
										CHANNELS 3 Xrotation Yrotation Zrotation
										JOINT RightHandPinky3
										{
											OFFSET -2.863380 0.000000 0.000000
											CHANNELS 3 Xrotation Yrotation Zrotation
											End Site
											{
												OFFSET 0.843597 2.711159 0.369971
											}
										}
									}
								}
							}
							JOINT RSleeve
							{
								OFFSET -6.676277 -0.344902 -1.011730
								CHANNELS 3 Xrotation Yrotation Zrotation
								End Site
								{
									OFFSET 0.000000 14.885353 0.000000
								}
							}
						}
					}
				}
				JOINT Backpack
				{
					OFFSET 0.000000 -2.471497 36.677502
					CHANNELS 3 Xrotation Yrotation Zrotation
					End Site
					{
						OFFSET 0.000000 20.427315 0.000000
					}
				}
				JOINT Hood
				{
					OFFSET 0.000000 18.754097 -10.431000
					CHANNELS 3 Xrotation Yrotation Zrotation
					JOINT Hood1
					{
						OFFSET 0.000000 -5.011002 -7.685901
						CHANNELS 3 Xrotation Yrotation Zrotation
						End Site
						{
							OFFSET 0.000000 9.175140 0.000000
						}
					}
				}
				JOINT LHoodieString
				{
					OFFSET 5.250500 16.397697 3.089900
					CHANNELS 3 Xrotation Yrotation Zrotation
					JOINT LHoodieString1
					{
						OFFSET 0.257700 -6.364304 3.694600
						CHANNELS 3 Xrotation Yrotation Zrotation
						JOINT LHoodieString2
						{
							OFFSET 0.000000 -9.643799 2.679100
							CHANNELS 3 Xrotation Yrotation Zrotation
							End Site
							{
								OFFSET 0.000000 10.009018 0.000000
							}
						}
					}
				}
				JOINT RHoodieString
				{
					OFFSET -5.250500 16.397697 3.089900
					CHANNELS 3 Xrotation Yrotation Zrotation
					JOINT RHoodieString1
					{
						OFFSET -0.257700 -6.364304 3.694600
						CHANNELS 3 Xrotation Yrotation Zrotation
						JOINT RHoodieString2
						{
							OFFSET 0.000000 -9.643799 2.679100
							CHANNELS 3 Xrotation Yrotation Zrotation
							End Site
							{
								OFFSET 0.000000 10.009018 0.000000
							}
						}
					}
				}
			}
			JOINT LBackpack_Strap
			{
				OFFSET 15.223200 -7.719803 -6.610900
				CHANNELS 3 Xrotation Yrotation Zrotation
				End Site
				{
					OFFSET 0.000000 16.040596 0.000000
				}
			}
			JOINT RBackpack_Strap
			{
				OFFSET -15.223000 -7.719803 -6.610900
				CHANNELS 3 Xrotation Yrotation Zrotation
				End Site
				{
					OFFSET 0.000000 16.040596 0.000000
				}
			}
		}
	}
	JOINT BoyFacialAnim_Joint
	{
		OFFSET 1.000000 -82.208099 -1.550900
		CHANNELS 3 Xrotation Yrotation Zrotation
		End Site
		{
			OFFSET 0.000000 30.012791 0.000000
		}
	}
}
MOTION
Frames: 4
Frame Time: 0.033333
-0.362378 78.029587 -0.829109 -1.496009 6.168262 3.027870 0.000000 -0.000000 0.000000 -22.637127 -6.363537 9.919082 26.182902 -0.192897 -0.974552 -2.509526 -2.909947 -13.546949 -0.000000 -0.000000 -0.000000 -0.000000 -0.000000 -0.000000 0.000000 0.000000 -0.000000 -20.543974 -12.541464 -19.504237 39.525656 0.301070 1.446338 -16.978392 -8.188608 9.371973 0.000000 -0.000000 -0.000000 0.000000 -0.000000 -0.000000 0.000003 -0.000001 0.000001 5.550228 0.033798 -0.529862 11.100325 0.009739 -0.734989 11.100324 0.009740 -0.734989 -10.509799 -1.525006 -3.378779 -17.396610 -3.946747 2.467865 -0.000000 0.000000 -0.000000 -0.000000 0.000000 -0.000000 -0.000000 0.000000 -0.000000 9.458446 -6.444344 -14.996464 -9.688682 10.601553 -35.774495 0.001825 -55.255937 0.168453 23.869184 -12.509996 16.445987 7.350853 -14.484214 -10.934834 -1.067059 0.182849 1.946093 0.000001 0.000001 0.000001 5.776112 -9.584525 -10.641316 0.033770 0.666529 -10.636479 0.000001 0.000001 -0.000005 1.641862 7.127208 -4.239659 -0.187948 -0.789341 -15.969027 0.000002 -0.000006 0.000001 1.677312 11.039963 -8.046062 -0.183056 -2.876881 -23.912144 0.000002 -0.000000 -0.000002 0.734626 28.047552 -16.218781 -0.849531 -6.142168 -29.148259 -0.000001 0.000000 -0.000000 -0.000001 -0.000002 0.000001 -3.413139 0.044914 -0.357069 -8.521090 -11.378042 60.672618 -0.093809 56.128883 -0.117880 33.242298 -12.830422 -17.731916 -4.978388 12.391664 9.407261 -1.210150 -0.220439 -2.120996 -0.000001 -0.000000 -0.000002 10.258607 13.576580 6.067480 0.012531 -0.647886 4.076575 0.000001 -0.000002 0.000005 -1.738481 -1.670989 3.393791 -0.252704 0.798096 21.448262 -0.000000 0.000000 0.000003 -0.824251 -13.700968 18.348844 -0.242214 2.213609 16.221204 0.000000 -0.000003 0.000002 -4.380720 -23.900596 30.060328 -0.233924 5.125285 12.870300 0.000000 -0.000003 0.000001 0.000000 -0.000001 0.000002 0.000000 -0.000001 0.000000 0.000000 -0.000001 0.000000 0.000000 -0.000001 0.000000 0.000000 -0.000001 0.000000 0.000000 -0.000001 0.000000 0.000000 -0.000001 0.000000 0.000000 -0.000001 0.000000 0.000000 -0.000001 0.000000 0.000000 -0.000001 0.000000 0.000000 0.000000 -0.000000 0.000000 0.000000 -0.000000 0.000000 -0.000000 0.000000 
-0.313993 77.451088 -0.665638 -0.760029 5.305005 2.919950 -0.000000 -0.000000 0.000000 -24.867419 -6.429816 9.961064 29.675195 0.210532 -1.034572 -4.176757 -2.666374 -12.877502 -0.000000 -0.000000 -0.000000 -0.000000 -0.000000 -0.000000 0.000000 -0.000000 -0.000000 -22.568053 -11.694726 -19.747957 42.067644 1.059711 1.559841 -18.240005 -8.225996 8.919471 0.000000 0.000001 0.000000 0.000000 0.000001 0.000000 0.000000 0.000001 -0.000000 5.449681 0.072403 -0.587995 10.899299 0.082940 -0.860923 10.899308 0.082941 -0.860923 -10.227330 -1.345895 -3.425861 -17.889963 -4.051293 2.735740 -0.000000 0.000000 0.000000 -0.000000 0.000000 0.000000 -0.000000 0.000000 0.000000 8.934604 -5.599657 -14.275966 -9.495806 9.770150 -36.757664 -0.000721 -55.180467 0.162396 23.510708 -9.948924 16.205449 6.005430 -15.156977 -10.376025 -0.754833 0.066097 1.843464 0.000000 0.000001 0.000000 5.370537 -9.903624 -8.369615 0.030145 0.665469 -10.515977 0.000000 0.000003 -0.000001 1.283421 6.555827 -2.119034 -0.176894 -0.743798 -15.398673 0.000003 -0.000002 -0.000000 1.482081 11.057583 -5.922539 -0.116557 -2.677672 -21.815783 -0.000002 -0.000001 -0.000001 0.373150 28.051794 -14.826800 -0.777551 -6.013005 -27.876790 -0.000000 -0.000001 -0.000000 -0.000000 -0.000002 -0.000002 -3.106497 0.025144 0.186346 -9.144044 -10.737923 59.744641 -0.088709 55.960925 -0.115474 31.446024 -11.648446 -18.077301 -4.847553 11.171751 9.343128 -0.509901 -1.579705 -2.221328 0.000001 0.000002 -0.000002 8.998470 13.582927 7.308057 -0.001218 -0.762318 7.555700 0.000000 0.000002 0.000000 -1.665356 -1.567443 4.490688 -0.323746 1.023994 24.740603 0.000003 0.000001 -0.000005 -0.682092 -12.857391 18.922138 -0.362331 2.491235 19.251530 -0.000001 0.000002 -0.000003 -4.012534 -23.012690 29.523807 -0.348368 5.238415 14.897838 0.000001 -0.000001 0.000004 0.000001 0.000001 -0.000001 -0.000001 0.000000 -0.000000 -0.000001 0.000000 -0.000000 -0.000001 0.000000 -0.000000 -0.000001 0.000000 -0.000000 -0.000001 0.000000 -0.000000 -0.000001 -0.000000 0.000000 -0.000001 0.000000 -0.000000 -0.000001 0.000000 -0.000000 -0.000001 -0.000000 0.000000 0.000002 -0.000000 0.000000 0.000002 -0.000000 0.000000 -0.000000 -0.000000 0.000000 
-0.200794 76.861366 -0.398977 -0.153629 4.176079 2.901857 0.000000 0.000000 0.000000 -26.704981 -6.417755 10.073725 33.092560 0.431523 -1.144434 -6.099165 -1.637692 -12.984728 -0.000000 0.000000 0.000000 -0.000000 0.000000 0.000000 0.000000 0.000000 -0.000000 -24.382326 -10.619446 -19.990671 44.510727 1.911969 1.671278 -19.387774 -8.351363 8.513601 0.000000 0.000000 -0.000000 0.000000 0.000000 -0.000000 0.000002 -0.000000 -0.000000 5.326123 0.097925 -0.657188 10.652281 0.132461 -0.991148 10.652283 0.132461 -0.991147 -9.815701 -1.077830 -3.589531 -18.046751 -3.920333 2.908015 -0.000000 -0.000000 0.000000 -0.000000 -0.000000 0.000000 -0.000000 -0.000000 0.000000 8.317186 -4.531837 -13.710802 -8.904093 9.148354 -37.984683 -0.002669 -55.673814 0.156242 22.445373 -6.573675 16.925955 4.489272 -15.935352 -9.805568 -0.411864 -0.064329 1.731001 0.000000 -0.000000 -0.000000 4.956972 -10.290479 -5.799883 0.026282 0.662446 -10.281694 -0.000002 -0.000001 -0.000004 0.936436 5.913471 0.275501 -0.163624 -0.688601 -14.706796 0.000003 0.000001 0.000002 1.275792 11.062746 -3.598373 -0.051062 -2.450691 -19.441553 0.000001 0.000002 -0.000002 -0.023245 28.059143 -13.235940 -0.698362 -5.862184 -26.412172 -0.000003 0.000001 0.000002 -0.000001 -0.000002 0.000002 -2.770571 0.059676 0.764015 -9.310123 -9.621824 58.706323 -0.081688 55.913858 -0.114349 29.706429 -10.165989 -17.851210 -4.740221 9.875360 9.266016 0.234593 -3.030668 -2.308172 0.000000 0.000002 -0.000000 7.613033 13.541992 8.662258 -0.000012 -0.890099 11.476117 -0.000002 -0.000001 0.000003 -1.586936 -1.449503 5.686015 -0.421011 1.275252 28.490884 0.000002 0.000001 0.000002 -0.546915 -11.922392 19.529987 -0.511746 2.791618 22.622953 -0.000001 -0.000000 0.000004 -3.591770 -22.044255 28.908697 -0.469541 5.355984 17.113671 0.000001 -0.000003 0.000001 -0.000002 -0.000001 -0.000001 -0.000002 -0.000000 -0.000000 -0.000002 -0.000000 -0.000000 -0.000002 -0.000000 -0.000000 -0.000002 -0.000000 -0.000000 -0.000002 -0.000000 -0.000000 -0.000002 -0.000000 -0.000000 -0.000002 -0.000000 -0.000000 -0.000002 -0.000000 -0.000000 -0.000002 -0.000000 -0.000000 0.000002 0.000000 0.000000 0.000002 0.000000 0.000000 0.000000 0.000000 0.000000 
0.006666 76.207573 -0.049615 0.044174 2.801894 3.087815 -0.000000 -0.000000 -0.000000 -28.249099 -6.828676 9.887513 37.327250 1.464220 -1.285570 -8.020544 -1.267602 -13.417430 -0.000000 0.000000 -0.000000 -0.000000 0.000000 -0.000000 -0.000001 0.000000 0.000001 -25.773290 -9.093555 -20.323885 47.140927 2.944059 1.804299 -20.587747 -8.824375 8.226516 0.000000 -0.000000 0.000000 0.000000 -0.000000 0.000000 -0.000002 -0.000001 -0.000001 5.218263 0.118793 -0.731632 10.436804 0.156788 -1.196408 10.436792 0.156787 -1.196409 -9.206494 -0.758973 -3.817419 -17.801635 -3.679930 3.147824 -0.000000 -0.000000 -0.000000 -0.000000 -0.000000 -0.000000 -0.000000 -0.000000 -0.000000 7.627516 -3.128183 -13.392758 -7.585894 8.590102 -39.139091 0.006277 -58.077324 0.158285 20.069719 -3.145668 18.149781 2.856120 -16.770968 -9.250783 -0.044644 -0.206104 1.609127 0.000002 -0.000001 -0.000000 4.564341 -10.742819 -3.065852 0.022792 0.658738 -10.014478 -0.000001 0.000002 -0.000003 0.636358 5.209877 2.815076 -0.150155 -0.630953 -13.984505 0.000001 -0.000000 0.000002 1.069283 11.045914 -1.202169 0.006307 -2.207624 -16.921290 0.000001 0.000001 -0.000004 -0.442461 28.054437 -11.557783 -0.619028 -5.700528 -24.864230 0.000000 0.000001 -0.000002 0.000002 -0.000002 -0.000002 -2.410419 0.098654 1.402855 -8.661814 -7.976963 57.690858 -0.071316 56.106640 -0.116049 28.361633 -8.568162 -16.161551 -4.666639 8.544805 9.174953 1.000624 -4.527256 -2.375836 0.000001 -0.000001 0.000004 6.140530 13.431056 10.027690 0.016643 -1.020627 15.586449 0.000000 0.000002 0.000004 -1.507089 -1.323602 6.882354 -0.542435 1.531902 32.419834 -0.000000 -0.000001 0.000003 -0.434371 -10.925794 20.086722 -0.684706 3.093938 26.147308 0.000001 0.000001 0.000001 -3.130780 -21.028638 28.157209 -0.587343 5.465768 19.401309 -0.000006 0.000002 0.000001 -0.000001 0.000002 -0.000003 0.000001 -0.000000 0.000000 0.000001 -0.000000 0.000000 0.000001 -0.000000 0.000000 0.000001 -0.000000 0.000000 0.000001 -0.000000 0.000000 0.000001 0.000000 -0.000000 0.000001 -0.000000 0.000000 0.000001 -0.000000 0.000000 0.000001 0.000000 -0.000000 0.000002 0.000000 -0.000000 0.000002 0.000000 -0.000000 -0.000000 -0.000000 -0.000000 
